<svg width="46" height="46" viewBox="0 0 46 46" fill="none" xmlns="http://www.w3.org/2000/svg">
<path d="M21 1.1547C22.2376 0.440169 23.7624 0.440169 25 1.1547L40.9186 10.3453C42.1562 11.0598 42.9186 12.3803 42.9186 13.8094V32.1906C42.9186 33.6197 42.1562 34.9402 40.9186 35.6547L25 44.8453C23.7624 45.5598 22.2376 45.5598 21 44.8453L5.08142 35.6547C3.84381 34.9402 3.08142 33.6197 3.08142 32.1906V13.8094C3.08142 12.3803 3.84381 11.0598 5.08142 10.3453L21 1.1547Z" fill="white"/>
<path d="M21.2965 16.6113L15.3335 22.772M15.3335 22.772L21.2965 28.1113M15.3335 22.772H31.9446" stroke="#1456FF" stroke-width="2"/>
</svg>
